<svg width="10" height="10" viewBox="0 0 10 10" fill="none" xmlns="http://www.w3.org/2000/svg">
<path d="M10 5C10 2.23859 7.76141 0 5 0C2.23859 0 0 2.23859 0 5C0 7.49563 1.82844 9.56418 4.21875 9.93926V6.44531H2.94922V5H4.21875V3.89844C4.21875 2.64531 4.96523 1.95313 6.10734 1.95313C6.65438 1.95313 7.22656 2.05078 7.22656 2.05078V3.28125H6.59609C5.97496 3.28125 5.78125 3.66668 5.78125 4.06211V5H7.16797L6.94629 6.44531H5.78125V9.93926C8.17156 9.56418 10 7.49566 10 5Z" fill="#1877F2"/>
<path d="M6.94629 6.44531L7.16797 5H5.78125V4.06211C5.78125 3.66664 5.97496 3.28125 6.59609 3.28125H7.22656V2.05078C7.22656 2.05078 6.65438 1.95312 6.1073 1.95312C4.96523 1.95312 4.21875 2.64531 4.21875 3.89844V5H2.94922V6.44531H4.21875V9.93926C4.47719 9.97976 4.7384 10.0001 5 10C5.2616 10.0001 5.52281 9.97977 5.78125 9.93926V6.44531H6.94629Z" fill="white"/>
</svg>
