<?xml version="1.0" encoding="utf-8"?>
<!-- Generator: Adobe Illustrator 27.9.3, SVG Export Plug-In . SVG Version: 9.03 Build 53313)  -->
<svg version="1.1" id="レイヤー_1" xmlns="http://www.w3.org/2000/svg" xmlns:xlink="http://www.w3.org/1999/xlink" x="0px"
	 y="0px" viewBox="0 0 346 346" style="enable-background:new 0 0 346 346;" xml:space="preserve">
<style type="text/css">
	.st0{fill:none;stroke:#191919;stroke-width:3;stroke-miterlimit:10;}
	.st1{fill:#CAE15E;}
	.st2{fill:#DDE05F;stroke:#191919;stroke-width:3;stroke-miterlimit:10;}
</style>
<g>
	<path class="st0" d="M208.44,39.52"/>
	<path class="st0" d="M245.51,38.59"/>
	<g>
		<path class="st1" d="M66.57,287.56c1.92,1.92,2.83,4.48,2.72,7.68c0,3.31-0.85,5.87-2.56,7.68c-1.71,1.92-4.38,3.2-8,3.84
			l-1.76-3.52c3.31-0.42,5.6-1.23,6.88-2.4c1.6-1.28,2.29-3.52,2.08-6.72c-0.21-3.52-2.35-5.71-6.4-6.56
			c-0.96,4.7-2.46,8.59-4.48,11.68c0.32,0.86,0.69,1.66,1.12,2.4l-2.56,2.24c-0.22-0.53-0.54-1.12-0.96-1.76
			c-2.14,2.35-4.32,3.52-6.56,3.52c-1.28,0-2.4-0.59-3.36-1.76c-1.07-1.28-1.55-3.15-1.44-5.6c0.21-2.56,0.96-4.91,2.24-7.04
			c1.49-2.45,3.52-4.27,6.08-5.44v-6.24h-7.2v-3.04h7.2v-6.24h3.2v6.24h12.16v3.04H52.81v5.28c1.39-0.21,2.83-0.37,4.32-0.48
			c0.11-0.75,0.16-1.6,0.16-2.56l3.2,0.64c-0.11,0.64-0.22,1.33-0.32,2.08C62.94,285.06,65.08,286.07,66.57,287.56z M45.93,302.13
			c1.81,0.22,3.63-0.85,5.44-3.2c-1.07-3.31-1.66-6.56-1.76-9.76c-1.6,1.07-2.83,2.24-3.68,3.52c-1.28,2.03-1.87,4.27-1.76,6.72
			C44.27,301.11,44.86,302.02,45.93,302.13z M53.77,295.41c1.28-2.34,2.13-5.07,2.56-8.16c-1.18,0-2.35,0.16-3.52,0.48v0.96
			C52.91,291.03,53.23,293.27,53.77,295.41z"/>
		<path class="st1" d="M93.33,294.77l2.88,2.24c-0.86,2.99-1.98,5.18-3.36,6.56c-1.07,1.28-2.4,1.81-4,1.6
			c-3.52-0.43-5.34-5.28-5.44-14.56c0-5.22,0.27-10.51,0.8-15.84l3.68,0.48c-0.75,5.02-1.12,10.19-1.12,15.52
			c0.1,6.51,0.91,9.92,2.4,10.24C90.66,301.33,92.05,299.25,93.33,294.77z M109.33,285.96c1.28,3.42,2.08,6.94,2.4,10.56l-3.68,1.12
			c-0.32-3.2-1.07-6.56-2.24-10.08c-1.28-3.73-2.72-6.67-4.32-8.8l3.04-1.92C106.45,279.4,108.05,282.44,109.33,285.96z"/>
		<path class="st1" d="M146.8,289.16c1.6,1.6,2.35,3.58,2.24,5.92c0,3.42-1.44,6.03-4.32,7.84c-2.67,1.81-6.24,2.72-10.72,2.72
			l-0.96-3.52c4.59,0,7.95-0.74,10.08-2.24c1.71-1.28,2.56-2.88,2.56-4.8c0-1.49-0.48-2.72-1.44-3.68
			c-1.18-1.17-2.67-1.76-4.48-1.76c-2.56,0-4.86,0.69-6.88,2.08c-1.18,0.86-2.67,2.24-4.48,4.16l-2.88-2.08
			c2.77-5.12,4.53-9.71,5.28-13.76h-7.68V277h8.16c0.21-1.81,0.43-4.05,0.64-6.72l3.52,0.64c-0.22,2.24-0.48,4.27-0.8,6.08h11.04
			v3.04H134c-0.64,3.1-1.66,6.4-3.04,9.92c2.45-1.92,5.17-2.99,8.16-3.2C142.54,286.76,145.1,287.56,146.8,289.16z"/>
		<path d="M164.44,273.64h33.6v3.52h-13.92c-0.32,1.07-0.8,2.19-1.44,3.36v25.92H179v-20.48c-3.63,4.59-8.22,8.11-13.76,10.56
			l-2.24-3.68c7.89-3.31,13.6-8.53,17.12-15.68h-15.68V273.64z M195.96,296.05c-3.52-3.95-7.26-7.09-11.2-9.44l2.24-2.88
			c4.16,2.14,8.11,5.23,11.84,9.28L195.96,296.05z"/>
		<path d="M232,301.97l-17.92,3.36c-0.11,0.75-0.38,0.9-0.8,0.48l-0.96-3.52l9.28-1.12v-2.88h-7.52v-2.56h7.52v-2.4h-3.68h-3.52
			v-11.36h7.2v-2.24h-9.28v-2.56h9.28v-1.92c-2.67,0.11-5.34,0.22-8,0.32l-0.48-2.72c5.23,0,10.83-0.59,16.8-1.76l1.44,2.72
			c0.32,0.64,0,0.75-0.96,0.32c-2.24,0.32-4.27,0.59-6.08,0.8v2.24h8.8v2.56h-8.8v2.24h7.36v11.36h-7.36v2.4h8v2.56h-8v2.4l8-1.28
			v2.24c3.09-2.77,4.69-6.99,4.8-12.64l0.16-6.24h-3.84v-3.04h3.84v-8.16h3.04c0.85,0.11,0.91,0.43,0.16,0.96v7.2h7.04l-0.32,21.12
			c-0.11,3.84-1.5,5.76-4.16,5.76h-4.32l-0.48-3.04h3.68c1.28,0,1.97-1.12,2.08-3.36l0.48-17.44h-4l-0.16,7.52
			c-0.11,7.36-3.36,13.07-9.76,17.12l-1.92-3.04C229.7,303.83,230.82,303.03,232,301.97z M217.12,283.88v2.72h4.48v-2.72H217.12z
			 M217.12,288.52v2.88h4.48v-2.88H217.12z M224.32,283.88v2.72h4.64v-2.72H224.32z M224.32,288.52v2.88h4.64v-2.88H224.32z"/>
		<path d="M271.56,277.32h-6.88v-2.56h13.76v-4.64h3.04c1.07,0.22,1.12,0.54,0.16,0.96v3.68h13.92v2.56h-6.4l-2.72,4.48h10.08v2.56
			h-28.48v10.4c0,5.02-1.6,9.17-4.8,12.48l-2.4-3.04c2.67-2.13,4-5.97,4-11.52V281.8h8.64L271.56,277.32z M268.2,305.97v-2.56h13.12
			v-4.48h-7.84v-2.56h7.84v-3.68h-6.08c-1.07,1.71-2.35,3.31-3.84,4.8l-2.24-2.56c2.35-1.92,4.27-4.91,5.76-8.96l3.04,1.12
			c0.85,0.32,0.69,0.69-0.48,1.12l-0.96,1.92h4.8v-4.32h3.04c0.96,0.22,1.01,0.54,0.16,0.96v3.36h9.92v2.56h-9.92v3.68h7.84v2.56
			h-7.84v4.48h12.8v2.56H268.2z M277,281.8h6.24l2.08-4.48h-10.08L277,281.8z"/>
	</g>
	<g>
		<path class="st0" d="M173.69,76.12"/>
		<path class="st0" d="M172.31,76.12"/>
		<path class="st0" d="M260.33,68.25"/>
		<polyline class="st0" points="12,233.18 12,103.46 107.44,40.45 173.44,80.34 175.73,81.72 191.76,91.41 191.76,233.18 
			238.09,258.2 238.09,124.77 238.09,52.96 334,52.96 334,257.74 		"/>
		<polyline class="st0" points="78.25,216.97 78.25,153.96 117.17,153.96 117.17,216.97 		"/>
		<circle class="st0" cx="110.68" cy="183.61" r="3.71"/>
		<rect x="139.41" y="107.63" class="st0" width="37.06" height="37.06"/>
		<rect x="25.44" y="107.63" class="st0" width="37.06" height="37.06"/>
		<line class="st0" x1="25.44" y1="126.16" x2="62.5" y2="126.16"/>
		<line class="st0" x1="43.97" y1="107.63" x2="43.97" y2="144.69"/>
		<line class="st0" x1="139.41" y1="126.16" x2="176.47" y2="126.16"/>
		<line class="st0" x1="157.94" y1="107.63" x2="157.94" y2="144.69"/>
		<rect x="43.97" y="107.63" class="st2" width="18.53" height="18.53"/>
		<rect x="139.41" y="107.63" class="st2" width="18.53" height="18.53"/>
		<rect x="139.41" y="126.16" class="st2" width="18.53" height="18.53"/>
		<rect x="157.94" y="126.16" class="st2" width="18.53" height="18.53"/>
		<rect x="157.94" y="107.63" class="st2" width="18.53" height="18.53"/>
		<rect x="251.53" y="77.05" class="st2" width="26.87" height="18.53"/>
		<rect x="293.23" y="77.05" class="st2" width="26.87" height="18.53"/>
		<rect x="251.53" y="109.48" class="st2" width="26.87" height="18.53"/>
		<rect x="293.23" y="109.48" class="st2" width="26.87" height="18.53"/>
		<rect x="251.53" y="141.91" class="st2" width="26.87" height="18.53"/>
		<rect x="293.23" y="141.91" class="st2" width="26.87" height="18.53"/>
		<rect x="251.53" y="174.34" class="st2" width="26.87" height="18.53"/>
		<rect x="293.23" y="174.34" class="st2" width="26.87" height="18.53"/>
		<rect x="251.53" y="206.77" class="st2" width="26.87" height="18.53"/>
		<rect x="293.23" y="206.77" class="st2" width="26.87" height="18.53"/>
		<rect x="43.97" y="126.16" class="st2" width="18.53" height="18.53"/>
		<rect x="25.44" y="126.16" class="st2" width="18.53" height="18.53"/>
		<rect x="25.44" y="107.63" class="st2" width="18.53" height="18.53"/>
		<rect x="250.6" y="76.12" class="st0" width="27.8" height="20.39"/>
		<rect x="292.3" y="76.12" class="st0" width="27.8" height="20.39"/>
		<rect x="250.6" y="108.55" class="st0" width="27.8" height="20.39"/>
		<rect x="292.3" y="108.55" class="st0" width="27.8" height="20.39"/>
		<rect x="250.6" y="140.98" class="st0" width="27.8" height="20.39"/>
		<rect x="292.3" y="140.98" class="st0" width="27.8" height="20.39"/>
		<rect x="250.6" y="173.42" class="st0" width="27.8" height="20.39"/>
		<rect x="292.3" y="173.42" class="st0" width="27.8" height="20.39"/>
		<rect x="250.6" y="205.85" class="st0" width="27.8" height="20.39"/>
		<rect x="292.3" y="205.85" class="st0" width="27.8" height="20.39"/>
	</g>
</g>
</svg>
